<?xml version="1.0" encoding="UTF-8"?>
<svg version="1.1" xmlns="http://www.w3.org/2000/svg" width="211" height="154">
<path d="M0 0 C69.63 0 139.26 0 211 0 C211 50.82 211 101.64 211 154 C141.37 154 71.74 154 0 154 C0 103.18 0 52.36 0 0 Z " fill="#000101" transform="translate(0,0)"/>
<path d="M0 0 C7.22314104 -0.09214496 14.44421862 -0.17169317 21.66748047 -0.21972656 C24.12132706 -0.23976324 26.57512637 -0.26700032 29.02880859 -0.30175781 C32.56880403 -0.35062498 36.10816468 -0.3730492 39.6484375 -0.390625 C41.277173 -0.42159271 41.277173 -0.42159271 42.93881226 -0.45318604 C53.04619807 -0.45612136 61.02795934 2.17309828 68.37109375 9.234375 C73.3299972 14.60949337 73.53702526 19.7298872 73.34375 26.80859375 C72.67988791 32.97194975 70.32456335 37.0108179 65.875 41.25 C57.74789915 47.42900167 49.63291424 48.58046332 39.6484375 48.390625 C38.50839264 48.38496521 37.36834778 48.37930542 36.1937561 48.37347412 C32.58705933 48.35125659 28.9813916 48.30108613 25.375 48.25 C22.91537903 48.22991617 20.45574233 48.21166872 17.99609375 48.1953125 C11.99668976 48.15485799 5.9994835 48.07653487 0 48 C0 32.16 0 16.32 0 0 Z " fill="#6CEDB2" transform="translate(36,29)"/>
<path d="M0 0 C1.39550868 0.58410959 2.79129699 1.16755204 4.1875 1.75 C5.115625 2.1625 6.04375 2.575 7 3 C7.33 1.35 7.66 -0.3 8 -2 C8.99 -2 9.98 -2 11 -2 C11 7.57 11 17.14 11 27 C10.01 27 9.02 27 8 27 C7.75765625 26.05898438 7.5153125 25.11796875 7.265625 24.1484375 C6.93046875 22.90320313 6.5953125 21.65796875 6.25 20.375 C5.92515625 19.14523438 5.6003125 17.91546875 5.265625 16.6484375 C3.24379845 10.82008564 -0.09130006 5.75985527 -5 2 C-11.30204686 -0.21124451 -16.96370493 -0.61267076 -23.18359375 1.96875 C-26.08675786 3.61699801 -26.97881441 4.80028516 -28 8 C-28.64177224 12.92025386 -28.60768689 16.73601127 -26.4375 21.25 C-20.32401127 28.14726933 -12.75110998 33.0046527 -5.11523438 38.05664062 C12.68773239 50.00657722 12.68773239 50.00657722 16 60 C16.265625 63.15625 16.265625 63.15625 16.25 66.5 C16.25773437 68.15515625 16.25773437 68.15515625 16.265625 69.84375 C15.72162331 76.3077701 12.69175356 81.56314734 7.9375 85.8671875 C1.54559926 90.80452108 -4.015912 92.4530132 -12 93 C-13.7325 93.15662109 -13.7325 93.15662109 -15.5 93.31640625 C-26.04536168 93.84144015 -34.35763884 90.96552429 -44 87 C-44.33 88.65 -44.66 90.3 -45 92 C-45.99 92 -46.98 92 -48 92 C-48 80.45 -48 68.9 -48 57 C-46.68 57 -45.36 57 -44 57 C-43.90203125 57.73863281 -43.8040625 58.47726563 -43.703125 59.23828125 C-42.26417101 69.00083975 -40.48483266 79.03736497 -33 86 C-27.46351736 89.25675449 -22.27145432 89.75672093 -16 89 C-11.22939244 87.32145289 -8.78995174 85.18200313 -6 81 C-5.40803146 77.82555099 -5.40803146 77.82555099 -5.5625 74.5 C-5.56378906 73.3965625 -5.56507813 72.293125 -5.56640625 71.15625 C-6.64187461 63.32761543 -13.08953295 58.61542812 -19 54 C-21.6734403 52.07265203 -24.39390189 50.21943952 -27.125 48.375 C-37.37115971 41.41393208 -44.4551365 36.51320479 -48 24 C-48.98785493 18.42255359 -48.18870184 13.83908505 -45.3828125 8.9140625 C-34.49700871 -6.153858 -15.98041265 -7.2971115 0 0 Z " fill="#4ADFC6" transform="translate(164,35)"/>
<path d="M0 0 C4.00124233 -0.19912394 8.00053573 -0.34353456 12.00561523 -0.43945312 C13.36485056 -0.47946385 14.72374629 -0.53389777 16.08178711 -0.60351562 C27.30014761 -1.16381567 27.30014761 -1.16381567 31.21655273 1.51757812 C33.00824213 3.58149044 34.48535863 5.72670782 36 8 C37.27387834 9.4306659 38.57569102 10.83688045 39.90234375 12.21875 C40.56556641 12.92386719 41.22878906 13.62898438 41.91210938 14.35546875 C42.91467773 15.41701172 42.91467773 15.41701172 43.9375 16.5 C44.93426758 17.56154297 44.93426758 17.56154297 45.95117188 18.64453125 C49.95147065 22.88927117 54.01916485 27.05160876 58.17333984 31.14599609 C63.09767778 36.14404772 67.51773111 41.60905991 72 47 C47.53047792 49.59973674 47.53047792 49.59973674 40.11328125 43.94140625 C36.27073024 40.32900924 33.10479019 36.24683512 30 32 C28.80757788 30.61117894 27.60310028 29.23237399 26.375 27.875 C25.62863281 26.98941406 25.62863281 26.98941406 24.8671875 26.0859375 C21.66133076 22.50449922 18.19647458 19.17721834 14.77929688 15.79882812 C11.14543587 12.19034915 7.66952063 8.50424986 4.3671875 4.5859375 C2.97999586 2.97679519 1.50896439 1.49438 0 0 Z " fill="#22D1E2" transform="translate(35,79)"/>
<path d="M0 0 C3.75043155 -0.08087991 7.49912186 -0.14044597 11.25 -0.1875 C12.31347656 -0.21263672 13.37695312 -0.23777344 14.47265625 -0.26367188 C15.49746094 -0.27333984 16.52226563 -0.28300781 17.578125 -0.29296875 C18.52075195 -0.3086792 19.46337891 -0.32438965 20.43457031 -0.34057617 C23.45668472 0.06062764 24.80336068 0.92205516 27 3 C27.74649417 5.72250817 27.58062027 8.24636524 27 11 C24.41772018 13.76036808 21.63009257 14.91497554 17.82348633 15.11352539 C17.00130615 15.10828857 16.17912598 15.10305176 15.33203125 15.09765625 C14.43935547 15.09443359 13.54667969 15.09121094 12.62695312 15.08789062 C11.23379883 15.07532227 11.23379883 15.07532227 9.8125 15.0625 C8.40194336 15.05573242 8.40194336 15.05573242 6.96289062 15.04882812 C4.64189992 15.03704645 2.32094193 15.01911114 0 15 C0 10.05 0 5.1 0 0 Z " fill="#010202" transform="translate(59,46)"/>
<path d="M0 0 C1.32 0 2.64 0 4 0 C4.09796875 0.73863281 4.1959375 1.47726563 4.296875 2.23828125 C5.73582899 12.00083975 7.51516734 22.03736497 15 29 C17.30965969 30.26068925 19.50401483 31.11906406 22 32 C21.67 32.99 21.34 33.98 21 35 C14.99522721 34.35083537 9.599219 32.14204997 4 30 C3.505 32.475 3.505 32.475 3 35 C2.01 35 1.02 35 0 35 C0 23.45 0 11.9 0 0 Z " fill="#14C3E0" transform="translate(116,92)"/>
</svg>
